<svg id="Capa_1" enable-background="new 0 0 512.01 512.01" height="512" viewBox="0 0 512.01 512.01" width="512" xmlns="http://www.w3.org/2000/svg"><g><path d="m498.819 13.19c-17.585-17.586-46.051-17.588-63.639 0l-12.409 12.409c-14.632-7.006-33.097-5.832-47.113 5.167-37.597-20.147-78.736-30.756-119.658-30.756-68.113 0-132.327 26.702-180.812 75.188s-75.188 112.699-75.188 180.812c0 140.96 115.049 256 256 256 140.96 0 256-115.049 256-256 0-40.933-10.608-82.068-30.756-119.662 10.937-13.943 12.221-32.374 5.167-47.11l12.408-12.409c17.586-17.583 17.59-46.051 0-63.639zm-137.819 242.82c0 57.897-47.103 105-105 105s-105-47.103-105-105 47.103-105 105-105c12.039 0 23.928 2.071 35.148 6.048l-86.924 86.924c-17.546 17.546-17.546 46.094 0 63.64 17.544 17.545 46.094 17.546 63.64 0l87.001-87.001c4.034 11.29 6.135 23.261 6.135 35.389zm-114.349 30.399c-5.849 5.848-15.365 5.849-21.214 0-5.849-5.848-5.849-15.365 0-21.213l137.886-137.886 21.214 21.214zm84.874-212.154c-2.822 2.811-4.411 6.629-4.415 10.613s1.576 7.805 4.394 10.622l10.606 10.606-28.037 28.036c-13.553-6.457-28.119-10.606-43.074-12.273v-91.306c27.953 2.008 55.803 9.592 82.001 22.315zm-90.525-43.735v91.328c-67.406 7.486-120 64.793-120 134.162 0 19.224 4.048 37.517 11.322 54.086l-79.082 45.657c-14.867-30.101-23.24-63.96-23.24-99.743 0-119.575 93.351-217.742 211-225.49zm15 451.49c-78.129 0-147.119-39.855-187.724-100.297l79.084-45.659c24.608 33.31 64.141 54.956 108.64 54.956s84.032-21.646 108.64-54.956l79.084 45.659c-40.605 60.442-109.595 100.297-187.724 100.297zm202.76-126.257-79.081-45.658c7.273-16.568 11.321-34.861 11.321-54.085 0-20.255-4.557-40.183-13.229-58.295l27.979-27.979 10.607 10.607c5.842 5.842 15.322 5.866 21.191.022l21.546-21.458c15.03 30.907 22.906 64.122 22.906 97.103 0 35.783-8.373 69.642-23.24 99.743zm18.846-300.136-21.212 21.213c-5.858 5.858-5.858 15.355 0 21.213 5.891 5.891 5.826 15.387.021 21.191-32.027 31.895-29.218 29.098-29.431 29.31 0 0-10.627-10.627-10.628-10.628s-.002-.002-.003-.003l-53.007-53.008 29.408-29.288c5.862-5.862 15.35-5.863 21.213 0 5.856 5.858 15.354 5.858 21.213 0l21.214-21.213c5.848-5.849 15.365-5.848 21.213 0 5.862 5.862 5.862 15.35-.001 21.213z"/></g></svg>